<svg width="66" height="70" viewBox="0 0 66 70" fill="none" xmlns="http://www.w3.org/2000/svg">
<path d="M62.685 33.241C59.385 32.549 56.83 28.259 56.74 24.693C56.682 23.6236 56.9326 22.56 57.462 21.629C58.799 19.423 59.086 17.784 57.045 15.829C55.117 13.968 53.371 12.264 50.607 14.537C49.7898 15.0391 48.8903 15.3928 47.95 15.582C44.563 15.558 39.504 12.437 38.888 10.057C38.307 7.67699 37.437 6.14499 34.588 6.26799H33.915C31.077 6.14399 30.167 7.67699 29.577 10.057C29.148 11.828 26.218 14.009 23.349 15.018C23.318 15.028 23.291 15.0476 23.2719 15.0739C23.2528 15.1002 23.2425 15.1319 23.2425 15.1645C23.2425 15.197 23.2528 15.2287 23.2719 15.2551C23.291 15.2814 23.318 15.301 23.349 15.311C24.134 15.577 24.949 15.845 25.767 16.102L25.905 16.143C27.0733 16.4659 28.1086 17.1523 28.8608 18.1029C29.613 19.0534 30.0432 20.2187 30.089 21.43C30.105 21.636 30.145 22.038 30.195 22.475L30.202 22.558C30.21 22.648 30.227 22.739 30.227 22.821C31.5423 22.4607 32.8993 22.2751 34.263 22.269C38.2593 22.3262 42.0923 23.8645 45.0194 26.5859C47.9465 29.3074 49.7594 33.0184 50.107 37V39.3C49.7625 43.2803 47.9485 46.9898 45.0184 49.7057C42.0883 52.4215 38.252 53.9492 34.257 53.991C31.8089 53.971 29.3983 53.3876 27.212 52.286C27.2062 52.324 27.2038 52.3625 27.205 52.401C27.197 52.632 27.188 52.872 27.164 53.101V56.338C27.171 58.067 27.171 59.806 27.171 61.538C27.1738 62.0911 27.138 62.6438 27.064 63.192C28.2045 63.8953 29.0854 64.9503 29.574 66.198C30.165 68.579 31.074 70.109 33.912 69.986H34.552C34.683 69.995 34.814 69.995 34.929 69.995C37.472 69.962 38.329 68.462 38.89 66.195C39.1925 65.3149 39.7383 64.5386 40.464 63.956C42.5381 62.0837 45.1672 60.9404 47.951 60.7C48.8877 60.8845 49.7862 61.227 50.608 61.713C53.372 64.042 55.069 62.339 57.046 60.429C59.046 58.529 58.801 56.839 57.463 54.68C55.273 51.114 58.332 43.933 62.687 43.02C64.926 42.591 65.672 41.537 65.918 40.153C65.9571 39.9302 65.9845 39.7056 66 39.48V36.828C65.876 35.068 65.285 33.784 62.685 33.241Z" fill="#96AAB8"/>
<path d="M21.415 8.079C21.3391 10.1937 20.4583 12.1996 18.9527 13.6866C17.4472 15.1736 15.4305 16.0294 13.315 16.079C11.2031 15.9768 9.20842 15.0782 7.73269 13.5641C6.25696 12.0499 5.40985 10.0328 5.36198 7.919C5.41846 5.80214 6.29805 3.79071 7.81389 2.31203C9.32973 0.833342 11.3624 0.00393174 13.48 0C15.594 0.0489121 17.6056 0.920262 19.0873 2.42888C20.5691 3.93749 21.4041 5.96445 21.415 8.079V8.079Z" fill="#112B36"/>
<path d="M26.706 24.8341C26.698 24.4911 26.612 23.7141 26.529 22.9621C26.465 22.3621 26.402 21.8031 26.395 21.5911C26.3818 21.1461 26.2212 20.7181 25.9385 20.3743C25.6558 20.0304 25.267 19.7901 24.833 19.6911L24.671 19.6421C23.506 19.2811 22.339 18.8861 21.244 18.5111C21.154 18.4801 21.016 18.4291 20.85 18.3681C20.1851 18.0811 19.4891 17.8723 18.776 17.7461L18.639 17.7631C18.4569 17.8247 18.2932 17.9309 18.1627 18.072C18.0322 18.2132 17.9391 18.3847 17.892 18.5711C17.861 18.6621 17.529 19.7321 17.104 21.1011C16.581 22.7941 15.915 24.9441 15.504 26.2571L15.013 22.5311C15.0127 22.4807 15.0074 22.4304 14.997 22.3811L14.942 21.9351C14.913 21.7031 14.893 21.5351 14.884 21.4561C14.959 21.2751 15.034 21.1061 15.112 20.9321L15.138 20.8681C15.18 20.7681 15.231 20.6541 15.28 20.5491L15.355 20.4161C15.4683 20.2291 15.5326 20.0165 15.542 19.7981C15.4782 19.4872 15.3775 19.1851 15.242 18.8981C15.143 18.7452 14.9878 18.6374 14.81 18.5981L14.662 18.5831C14.611 18.5647 14.5571 18.5559 14.503 18.5571C14.337 18.5481 13.923 18.5481 13.396 18.5481C12.869 18.5481 12.456 18.5481 12.306 18.5571C12.2462 18.5552 12.1865 18.5644 12.13 18.5841L11.966 18.6031C11.8106 18.6364 11.6734 18.7271 11.582 18.8571C11.4254 19.1532 11.3116 19.47 11.244 19.7981C11.2522 20.0114 11.3174 20.2186 11.433 20.3981L11.513 20.5551C11.556 20.6501 11.607 20.7611 11.649 20.8641L11.675 20.9281C11.754 21.1021 11.828 21.2721 11.904 21.4521C11.894 21.5371 11.873 21.7031 11.846 21.9311L11.792 22.3621C11.7833 22.4046 11.7782 22.4477 11.777 22.4911L11.277 26.2521C10.864 24.9401 10.199 22.7901 9.67698 21.0971C9.25398 19.7271 8.92098 18.6571 8.89098 18.5681C8.84483 18.3814 8.75238 18.2093 8.62218 18.0677C8.49197 17.9262 8.3282 17.8197 8.14598 17.7581L7.99998 17.7481C7.28724 17.8745 6.59158 18.0832 5.92698 18.3701C5.76098 18.4311 5.62698 18.4821 5.53198 18.5131C4.43198 18.8881 3.27198 19.2851 2.10498 19.6451L1.94498 19.6931C1.51103 19.7924 1.12225 20.0327 0.839436 20.3765C0.556627 20.7203 0.395752 21.1481 0.38198 21.5931C0.37598 21.8041 0.31298 22.3661 0.24798 22.9621C0.16498 23.7151 0.07998 24.4911 0.07098 24.8341C-0.02202 29.0571 -0.02302 33.6821 0.07098 38.9731C0.0900901 39.9874 0.30079 40.989 0.69198 41.9251C1.13294 42.9725 1.73785 43.9429 2.48398 44.8001C2.50598 44.8261 2.52898 44.8531 2.56298 44.9001C2.68187 45.0541 2.7879 45.2177 2.87998 45.3891C2.89798 45.7771 2.91565 46.1678 2.93298 46.5611C3.06198 49.4101 3.17398 49.7151 3.25998 52.2791C3.26698 52.4951 3.28298 52.7081 3.30498 52.8791V56.3411C3.30498 58.0744 3.30498 59.8078 3.30498 61.5411C3.25315 62.6199 3.42695 63.6977 3.81527 64.7055C4.2036 65.7134 4.7979 66.6291 5.56021 67.3942C6.32252 68.1594 7.23606 68.7571 8.24246 69.1491C9.24886 69.5411 10.326 69.7189 11.405 69.6711L13.395 69.6771L15.406 69.6711C16.483 69.716 17.5577 69.536 18.5613 69.1425C19.5649 68.7491 20.4756 68.1509 21.2352 67.386C21.9948 66.6211 22.5868 65.7063 22.9732 64.7C23.3597 63.6936 23.5323 62.6178 23.48 61.5411C23.48 59.8078 23.48 58.0744 23.48 56.3411V52.9111C23.502 52.7041 23.519 52.4911 23.527 52.2771C23.612 49.7111 23.727 49.4061 23.854 46.5551C23.868 46.1641 23.887 45.7751 23.906 45.3851C24.001 45.2074 24.1111 45.0381 24.235 44.8791C24.2571 44.8489 24.2808 44.8198 24.306 44.7921C25.0507 43.9374 25.6552 42.9701 26.097 41.9261C26.4874 40.9888 26.6977 39.9863 26.717 38.9711C26.8 33.6821 26.8 29.0571 26.706 24.8341Z" fill="#112B36"/>
<path d="M43.66 38.132C43.6645 40.638 42.6735 43.0432 40.9049 44.8188C39.1364 46.5943 36.735 47.5947 34.229 47.6C32.0888 47.6061 30.0121 46.8732 28.35 45.525C28.7972 44.8363 29.1821 44.1091 29.5 43.352C30.0639 41.9819 30.369 40.5192 30.4 39.038C30.457 35.596 30.48 32.424 30.457 29.46C31.6432 28.9283 32.9291 28.6556 34.229 28.66C35.4702 28.6626 36.6987 28.9097 37.8444 29.3871C38.9901 29.8646 40.0306 30.563 40.9063 31.4426C41.7821 32.3222 42.476 33.3656 42.9485 34.5134C43.421 35.6612 43.6627 36.8908 43.66 38.132V38.132Z" fill="#96AAB8"/>
</svg>
