<svg width="67" height="70" viewBox="0 0 67 70" fill="none" xmlns="http://www.w3.org/2000/svg">
<path d="M2.33101 13.53L2.31301 14.102L2.09201 21.175L1.85301 28.829C1.84242 29.1803 1.92418 29.5281 2.09013 29.8379C2.25609 30.1476 2.50042 30.4084 2.79872 30.5941C3.09703 30.7799 3.43885 30.8841 3.79004 30.8964C4.14123 30.9086 4.48948 30.8285 4.80001 30.664L12.771 26.439L18.114 23.608L18.327 23.495C18.5385 23.382 18.7126 23.2099 18.8282 22.9998C18.9438 22.7897 18.9958 22.5505 18.978 22.3113C18.9602 22.0722 18.8734 21.8433 18.728 21.6526C18.5826 21.4619 18.3849 21.3175 18.159 21.237L14.949 20.497C20.149 12.441 27.667 8.30702 37.249 7.81302C42.3549 7.53292 47.4319 8.7445 51.861 11.3C54.4692 12.6811 56.7703 14.5766 58.6254 16.872C60.4805 19.1674 61.8509 21.8151 62.654 24.655C62.7761 25.1747 62.9946 25.6668 63.298 26.106C63.5372 26.363 63.8583 26.529 64.2063 26.5755C64.5543 26.622 64.9077 26.5462 65.206 26.361C65.5273 26.1707 65.7745 25.8768 65.9069 25.5276C66.0393 25.1784 66.0493 24.7946 65.935 24.439C65.3802 21.9971 64.5411 19.6286 63.435 17.382C61.5412 13.5683 58.877 10.1888 55.6106 7.45718C52.3442 4.72557 48.5466 2.7012 44.458 1.51202C37.026 -0.830694 29.0006 -0.433717 21.836 2.63102C16.3132 4.87118 11.5152 8.59126 7.97001 13.382C7.49301 14.02 7.04801 14.682 6.59901 15.352L4.42801 12.682C4.34116 12.597 4.24247 12.5249 4.13501 12.468C3.85764 12.327 3.53756 12.2947 3.23763 12.3776C2.9377 12.4605 2.6796 12.6526 2.51401 12.916C2.399 13.1005 2.33579 13.3126 2.33101 13.53Z" fill="#96AAB8"/>
<path d="M64.669 56.471L64.688 55.8989L64.906 48.826L65.145 41.173C65.1559 40.8218 65.0744 40.4739 64.9087 40.1641C64.743 39.8544 64.4989 39.5935 64.2008 39.4076C63.9026 39.2218 63.5609 39.1174 63.2098 39.105C62.8587 39.0926 62.5105 39.1726 62.2 39.337L54.228 43.561L48.888 46.3909L48.674 46.506C48.4627 46.6188 48.2887 46.7905 48.173 47.0003C48.0573 47.21 48.005 47.4488 48.0224 47.6878C48.0397 47.9267 48.126 48.1554 48.2708 48.3463C48.4156 48.5371 48.6126 48.6819 48.838 48.763L52.052 49.5009C46.852 57.5599 39.334 61.691 29.752 62.1889C24.6454 62.4684 19.5677 61.2561 15.138 58.7C12.5298 57.3191 10.2288 55.4236 8.37405 53.1282C6.51929 50.8327 5.14934 48.1849 4.34701 45.345C4.22216 44.8276 4.00282 44.3377 3.70001 43.9C3.46115 43.6418 3.1398 43.4749 2.79123 43.428C2.44265 43.3811 2.08862 43.4571 1.79001 43.643C1.46857 43.8332 1.22133 44.127 1.08886 44.4763C0.956397 44.8255 0.946578 45.2094 1.06101 45.5649C1.61395 48.0068 2.45309 50.3748 3.56101 52.6199C5.45513 56.4335 8.1198 59.8126 11.3866 62.5437C14.6533 65.2749 18.4512 67.2986 22.54 68.4869C29.9724 70.8313 37.9987 70.435 45.164 67.37C50.6871 65.1292 55.4851 61.4084 59.03 56.617C59.504 55.978 59.95 55.3169 60.4 54.6469L62.571 57.316C62.6576 57.4017 62.7559 57.4748 62.863 57.533C63.1409 57.6733 63.4612 57.7051 63.7613 57.6221C64.0614 57.5391 64.3198 57.3472 64.486 57.084C64.6009 56.8997 64.6641 56.688 64.669 56.471Z" fill="#96AAB8"/>
<path d="M43.155 46.1139C42.879 44.8059 42.397 44.5139 41.125 44.8839C39.002 45.5785 36.7325 45.6962 34.549 45.2249C33.1556 44.9368 31.8849 44.2263 30.9099 43.1901C29.9348 42.1538 29.3029 40.8422 29.1 39.4339H29.925C33.2583 39.4339 36.595 39.4339 39.935 39.4339C41.12 39.4339 41.482 39.0339 41.483 37.7399C41.483 36.3729 41.147 35.9889 39.92 35.9889C36.3833 35.9836 32.845 35.9836 29.305 35.9889H28.324C28.324 35.5939 28.338 35.2439 28.335 34.9039C28.332 34.5639 28.324 34.2149 28.324 33.8189H29.305C32.845 33.8189 36.3833 33.8189 39.92 33.8189C41.147 33.8189 41.485 33.4349 41.483 32.0699C41.483 30.7779 41.12 30.3769 39.935 30.3759C36.595 30.3719 33.2583 30.3719 29.925 30.3759H29.1C29.3027 28.9681 29.9341 27.6568 30.9083 26.6205C31.8826 25.5842 33.1523 24.8731 34.545 24.5839C36.7285 24.1134 38.9978 24.2311 41.121 24.9249C42.393 25.2949 42.875 25.0029 43.151 23.6969C43.327 22.8569 43.511 22.0219 43.7 21.1849C43.8011 20.893 43.7846 20.5731 43.6539 20.2931C43.5232 20.0131 43.2887 19.795 43 19.6849C36.127 16.6849 26.845 18.2989 22.841 25.9679C22.2832 27.1784 21.8383 28.4377 21.512 29.7299C21.37 30.1819 21.243 30.4629 20.721 30.3819C20.5449 30.3694 20.3681 30.3694 20.192 30.3819C18.342 30.3879 17.786 31.0649 18.178 32.8739C18.2245 33.1531 18.373 33.4051 18.5947 33.5809C18.8165 33.7568 19.0956 33.8441 19.378 33.8259C19.849 33.8379 20.323 33.8259 20.846 33.8259V35.9999C20.323 35.9999 19.846 35.9879 19.378 35.9999C19.0959 35.9833 18.8176 36.0712 18.5962 36.2468C18.3749 36.4224 18.226 36.6734 18.178 36.9519C17.785 38.7629 18.341 39.4379 20.192 39.4459C20.3681 39.4584 20.5449 39.4584 20.721 39.4459C21.243 39.3639 21.37 39.6459 21.512 40.0999C21.8383 41.3912 22.2832 42.6495 22.841 43.8589C26.841 51.5299 36.127 53.1439 43 50.1409C43.289 50.0313 43.5239 49.8132 43.6546 49.5331C43.7853 49.2529 43.8016 48.9329 43.7 48.6409C43.516 47.7869 43.331 46.9509 43.155 46.1139Z" fill="#112B36"/>
</svg>
